<svg width="168" height="28" viewBox="0 0 168 28" fill="none" xmlns="http://www.w3.org/2000/svg">
<path d="M16.3 0H0V13.8C0 15.4667 0.333333 17 1 18.4C1.818 14.2876 3.65719 10.4471 6.3483 7.23173C9.03941 4.01637 12.496 1.52951 16.4 0" fill="black"/>
<path d="M21.7008 0H18.9008C13.0008 2.2 5.00083 10.6 8.10083 25.5C10.6008 27 12.8008 27.8 12.8008 27.8C12.8008 27.8 15.2008 26.8 18.0008 25C12.4008 16 13.6008 5.5 21.7008 0Z" fill="black"/>
<path d="M23.5004 0C18.0004 4 17.2004 13.4 23.5004 19.9C24.7671 18.1 25.4337 16.1 25.5004 13.9V0H23.5004Z" fill="black"/>
<path d="M44.6 0H30V27.4H44.5C55 27.4 61.5 23.1 61.5 13.9V13.6C61.6 4.4 55 0 44.6 0ZM53.2 14C53.2 18.8 50.7 21.2 44.5 21.2H38.2V6.4H44.5C50.7 6.4 53.2 8.7 53.2 13.6V14ZM89.2 13.6C91.6 12.8 93.3 10.9 93.3 7.6C93.3 1.7 88.6 0.2 82.4 0.2H63.4V27.5H71.4V17H81.7C84.2333 16.9333 85.5 18.0667 85.5 20.4V27.5H93.6V20C93.5333 16.5333 92.0333 14.4 89.1 13.6M81.5 11H71.5V6H81.4C83.7 6 85.1 6.4 85.1 8.5C85.1 10.5 83.8 11 81.6 11M95.8 0.1V27.4H103.9V0.1H95.8ZM130.6 0.1L122.1 20.1L113.6 0.1H104.7L117.1 27.4H126.8L139.2 0.1H130.6ZM148 21.2V16.4H166V10.7H148V6.2H166.8V0.1H140V27.4H167V21.2H148Z" fill="black"/>
</svg>
